$MeshFormat
4.1 0 8
$EndMeshFormat
$PhysicalNames
7
0 108 "point_heel"
0 109 "point_toe"
1 100 "curve_wellbore"
2 103 "surface_wellbore_cylinder"
2 106 "surface_farfield"
2 107 "surface_cap_rock"
3 110 "volume_reservoir"
$EndPhysicalNames
$Entities
16 32 20 4
1 0 0.2 0 1 108 
2 0 0 0.2 0 
3 0 -0.2 0 0 
4 0 0 -0.2 0 
5 0 2 0 0 
6 0 0 2 0 
7 0 -2 0 0 
8 0 0 -2 0 
10 8 0.2 0 1 109 
11 8 0 0.2 0 
12 8 0 2 0 
13 8 2 0 0 
14 8 -0.2 0 0 
15 8 -2 0 0 
16 8 0 -0.2 0 
17 8 0 -2 0 
1 -1e-07 -9.999999997511999e-08 -1.000000000167534e-07 1e-07 0.2000001 0.2000001 0 2 1 -2 
2 -1e-07 -0.2000001 -9.99999999612422e-08 1e-07 1.000000000306311e-07 0.2000001 0 2 2 -3 
3 -1e-07 -0.2000001 -0.2000001 1e-07 9.999999994736442e-08 1.000000000306311e-07 0 2 3 -4 
4 -1e-07 -1.000000000028756e-07 -0.2000001 1e-07 0.2000001 9.999999998899778e-08 0 2 4 -1 
5 -1e-07 -9.999999983634211e-08 -1.00000000169409e-07 1e-07 2.0000001 2.0000001 0 2 5 -6 
6 -1e-07 -2.0000001 -9.999999961429751e-08 1e-07 1.000000002804313e-07 2.0000001 0 2 6 -7 
7 -1e-07 -2.0000001 -2.0000001 1e-07 9.999999961429751e-08 1.000000002804313e-07 0 2 7 -8 
8 -1e-07 -9.999999994736442e-08 -2.0000001 1e-07 2.0000001 9.999999983634211e-08 0 2 8 -5 
9 -1e-07 0.1999999 -1e-07 1e-07 2.0000001 1e-07 0 2 1 -5 
10 -1e-07 -1e-07 0.1999999 1e-07 1e-07 2.0000001 0 2 2 -6 
11 -1e-07 -2.0000001 -1e-07 1e-07 -0.1999999 1e-07 0 2 3 -7 
12 -1e-07 -1e-07 -2.0000001 1e-07 1e-07 -0.1999999 0 2 4 -8 
13 -9.999999983634211e-08 0.1999999 -1e-07 8.000000099999999 0.2000001 1e-07 1 100 2 1 -10 
14 -9.999999983634211e-08 -1e-07 0.1999999 8.000000099999999 1e-07 0.2000001 0 2 2 -11 
15 7.9999999 -9.999999997511999e-08 -1.000000000167534e-07 8.000000099999999 0.2000001 0.2000001 0 2 10 -11 
16 -9.999999983634211e-08 -1e-07 1.9999999 8.000000099999999 1e-07 2.0000001 0 2 6 -12 
17 7.9999999 -1e-07 0.1999999 8.000000099999999 1e-07 2.0000001 0 2 11 -12 
18 -9.999999983634211e-08 1.9999999 -1e-07 8.000000099999999 2.0000001 1e-07 0 2 5 -13 
19 7.9999999 -9.999999983634211e-08 -1.00000000169409e-07 8.000000099999999 2.0000001 2.0000001 0 2 13 -12 
20 7.9999999 0.1999999 -1e-07 8.000000099999999 2.0000001 1e-07 0 2 10 -13 
21 -9.999999983634211e-08 -0.2000001 -1e-07 8.000000099999999 -0.1999999 1e-07 0 2 3 -14 
22 7.9999999 -0.2000001 -9.99999999612422e-08 8.000000099999999 1.000000000306311e-07 0.2000001 0 2 11 -14 
23 -9.999999983634211e-08 -2.0000001 -1e-07 8.000000099999999 -1.9999999 1e-07 0 2 7 -15 
24 7.9999999 -2.0000001 -1e-07 8.000000099999999 -0.1999999 1e-07 0 2 14 -15 
25 7.9999999 -2.0000001 -9.999999961429751e-08 8.000000099999999 1.000000002804313e-07 2.0000001 0 2 12 -15 
26 -9.999999983634211e-08 -1e-07 -0.2000001 8.000000099999999 1e-07 -0.1999999 0 2 4 -16 
27 7.9999999 -0.2000001 -0.2000001 8.000000099999999 9.999999994736442e-08 1.000000000306311e-07 0 2 14 -16 
28 -9.999999983634211e-08 -1e-07 -2.0000001 8.000000099999999 1e-07 -1.9999999 0 2 8 -17 
29 7.9999999 -1e-07 -2.0000001 8.000000099999999 1e-07 -0.1999999 0 2 16 -17 
30 7.9999999 -2.0000001 -2.0000001 8.000000099999999 9.999999961429751e-08 1.000000002804313e-07 0 2 15 -17 
31 7.9999999 -1.000000000028756e-07 -0.2000001 8.000000099999999 0.2000001 9.999999998899778e-08 0 2 16 -10 
32 7.9999999 -9.999999994736442e-08 -2.0000001 8.000000099999999 2.0000001 9.999999983634211e-08 0 2 17 -13 
1 -1e-07 -9.999999994736442e-08 -1.00000000169409e-07 1e-07 2.0000001 2.0000001 1 107 4 1 10 -5 -9 
2 -1e-07 -2.0000001 -9.999999994736442e-08 1e-07 1.000000002804313e-07 2.0000001 1 107 4 2 11 -6 -10 
3 -1e-07 -2.0000001 -2.0000001 1e-07 9.999999994736442e-08 1.000000002804313e-07 1 107 4 3 12 -7 -11 
4 -1e-07 -9.999999994736442e-08 -2.0000001 1e-07 2.0000001 9.999999994736442e-08 1 107 4 4 9 -8 -12 
5 -9.999999983634211e-08 -9.999999997511999e-08 -1.000000000167534e-07 8.000000099999999 0.2000001 0.2000001 1 103 4 13 15 -14 -1 
6 -9.999999983634211e-08 -1e-07 0.1999999 8.000000099999999 1e-07 2.0000001 0 4 14 17 -16 -10 
7 -9.999999983634211e-08 -9.999999983634211e-08 -1.00000000169409e-07 8.000000099999999 2.0000001 2.0000001 1 106 4 18 19 -16 -5 
8 -9.999999983634211e-08 0.1999999 -1e-07 8.000000099999999 2.0000001 1e-07 0 4 13 20 -18 -9 
9 7.9999999 -9.999999994736442e-08 -1.00000000169409e-07 8.000000099999999 2.0000001 2.0000001 1 107 4 15 17 -19 -20 
10 -9.999999983634211e-08 -0.2000001 -9.99999999612422e-08 8.000000099999999 1.000000000306311e-07 0.2000001 1 103 4 14 22 -21 -2 
11 -9.999999983634211e-08 -2.0000001 -1e-07 8.000000099999999 -0.1999999 1e-07 0 4 21 24 -23 -11 
12 -9.999999983634211e-08 -2.0000001 -9.999999961429751e-08 8.000000099999999 1.000000002804313e-07 2.0000001 1 106 4 16 25 -23 -6 
13 7.9999999 -2.0000001 -9.999999994736442e-08 8.000000099999999 1.000000002804313e-07 2.0000001 1 107 4 22 24 -25 -17 
14 -9.999999983634211e-08 -0.2000001 -0.2000001 8.000000099999999 9.999999994736442e-08 1.000000000306311e-07 1 103 4 21 27 -26 -3 
15 -9.999999983634211e-08 -1e-07 -2.0000001 8.000000099999999 1e-07 -0.1999999 0 4 26 29 -28 -12 
16 -9.999999983634211e-08 -2.0000001 -2.0000001 8.000000099999999 9.999999961429751e-08 1.000000002804313e-07 1 106 4 23 30 -28 -7 
17 7.9999999 -2.0000001 -2.0000001 8.000000099999999 9.999999994736442e-08 1.000000002804313e-07 1 107 4 27 29 -30 -24 
18 -9.999999983634211e-08 -1.000000000028756e-07 -0.2000001 8.000000099999999 0.2000001 9.999999998899778e-08 1 103 4 26 31 -13 -4 
19 -9.999999983634211e-08 -9.999999994736442e-08 -2.0000001 8.000000099999999 2.0000001 9.999999983634211e-08 1 106 4 28 32 -18 -8 
20 7.9999999 -9.999999994736442e-08 -2.0000001 8.000000099999999 2.0000001 9.999999994736442e-08 1 107 4 31 20 -32 -29 
1 -9.999999983634211e-08 -9.999999994736442e-08 -1.00000000169409e-07 8.000000099999999 2.0000001 2.0000001 1 110 6 5 6 -7 -8 1 -9 
2 -9.999999983634211e-08 -2.0000001 -9.999999994736442e-08 8.000000099999999 1.000000002804313e-07 2.0000001 1 110 6 10 11 -12 -6 2 -13 
3 -9.999999983634211e-08 -2.0000001 -2.0000001 8.000000099999999 9.999999994736442e-08 1.000000002804313e-07 1 110 6 14 15 -16 -11 3 -17 
4 -9.999999983634211e-08 -9.999999994736442e-08 -2.0000001 8.000000099999999 2.0000001 9.999999994736442e-08 1 110 6 18 8 -19 -15 4 -20 
$EndEntities
$Nodes
44 24 1 24
0 1 0 1
1
0 0.2 0
0 2 0 1
2
0 0 0.2
0 3 0 1
3
0 -0.2 0
0 4 0 1
4
0 0 -0.2
0 5 0 1
5
0 2 0
0 6 0 1
6
0 0 2
0 7 0 1
7
0 -2 0
0 8 0 1
8
0 0 -2
0 10 0 1
9
8 0.2 0
0 11 0 1
10
8 0 0.2
0 12 0 1
11
8 0 2
0 13 0 1
12
8 2 0
0 14 0 1
13
8 -0.2 0
0 15 0 1
14
8 -2 0
0 16 0 1
15
8 0 -0.2
0 17 0 1
16
8 0 -2
1 13 0 1
17
4 0.2 0
1 14 0 1
18
4 0 0.2
1 16 0 1
19
4 0 2
1 18 0 1
20
4 2 0
1 21 0 1
21
4 -0.2 0
1 23 0 1
22
4 -2 0
1 26 0 1
23
4 0 -0.2
1 28 0 1
24
4 0 -2
2 1 0 0
2 2 0 0
2 3 0 0
2 4 0 0
2 5 0 0
2 7 0 0
2 9 0 0
2 10 0 0
2 12 0 0
2 13 0 0
2 14 0 0
2 16 0 0
2 17 0 0
2 18 0 0
2 19 0 0
2 20 0 0
3 1 0 0
3 2 0 0
3 3 0 0
3 4 0 0
$EndNodes
$Elements
23 36 1 36
0 1 15 1
1 1 
0 10 15 1
2 9 
1 13 1 2
3 1 17 
4 17 9 
2 1 3 1
5 1 2 6 5 
2 2 3 1
6 2 3 7 6 
2 3 3 1
7 3 4 8 7 
2 4 3 1
8 4 1 5 8 
2 5 3 2
9 1 17 18 2 
10 17 9 10 18 
2 7 3 2
11 5 6 19 20 
12 20 19 11 12 
2 9 3 1
13 9 12 11 10 
2 10 3 2
14 2 18 21 3 
15 18 10 13 21 
2 12 3 2
16 6 7 22 19 
17 19 22 14 11 
2 13 3 1
18 10 11 14 13 
2 14 3 2
19 3 21 23 4 
20 21 13 15 23 
2 16 3 2
21 7 8 24 22 
22 22 24 16 14 
2 17 3 1
23 13 14 16 15 
2 18 3 2
24 4 23 17 1 
25 23 15 9 17 
2 19 3 2
26 8 5 20 24 
27 24 20 12 16 
2 20 3 1
28 15 16 12 9 
3 1 5 2
29 6 2 1 5 19 18 17 20 
30 19 18 17 20 11 10 9 12 
3 2 5 2
31 7 3 2 6 22 21 18 19 
32 22 21 18 19 14 13 10 11 
3 3 5 2
33 8 4 3 7 24 23 21 22 
34 24 23 21 22 16 15 13 14 
3 4 5 2
35 5 1 4 8 20 17 23 24 
36 20 17 23 24 12 9 15 16 
$EndElements
